Wavefont-w400r100a0.ufo
<glyph name="_8" format="2">
	<unicode hex="0108"/>
	<unicode hex="0065"/>
	<advance width="400"/>
	<outline>
		<component base="cap"/>
		<component base="cap" yOffset="-320"/>
		<contour>
			<point x="0" y="200" type="line"/>
			<point x="0" y="-120" type="line"/>
			<point x="400" y="-120" type="line"/>
			<point x="400" y="200" type="line"/>
		</contour>
	</outline>
</glyph>
<glyph name="_38" format="2">
	<unicode hex="0126"/>
	<unicode hex="0074"/>
	<advance width="400"/>
	<outline>
		<component base="cap"/>
		<component base="cap" yOffset="-20"/>
		<contour>
			<point x="0" y="200" type="line"/>
			<point x="0" y="180" type="line"/>
			<point x="400" y="180" type="line"/>
			<point x="400" y="200" type="line"/>
		</contour>
	</outline>
</glyph>
<glyph name="_43" format="2">
	<unicode hex="012B"/>
	<advance width="400"/>
	<outline>
		<component base="cap"/>
		<component base="cap" yOffset="30"/>
		<contour>
			<point x="0" y="200" type="line"/>
			<point x="0" y="230" type="line"/>
			<point x="400" y="230" type="line"/>
			<point x="400" y="200" type="line"/>
		</contour>
	</outline>
</glyph>
<glyph name="_53" format="2">
	<unicode hex="0135"/>
	<advance width="400"/>
	<outline>
		<component base="cap"/>
		<component base="cap" yOffset="130"/>
		<contour>
			<point x="0" y="200" type="line"/>
			<point x="0" y="330" type="line"/>
			<point x="400" y="330" type="line"/>
			<point x="400" y="200" type="line"/>
		</contour>
	</outline>
</glyph>
<glyph name="_77" format="2">
	<unicode hex="014D"/>
	<advance width="400"/>
	<outline>
		<component base="cap"/>
		<component base="cap" yOffset="370"/>
		<contour>
			<point x="0" y="200" type="line"/>
			<point x="0" y="570" type="line"/>
			<point x="400" y="570" type="line"/>
			<point x="400" y="200" type="line"/>
		</contour>
	</outline>
</glyph>
<glyph name="_86" format="2">
	<unicode hex="0156"/>
	<unicode hex="2587"/>
	<unicode hex="0052"/>
	<advance width="400"/>
	<outline>
		<component base="cap"/>
		<component base="cap" yOffset="460"/>
		<contour>
			<point x="0" y="200" type="line"/>
			<point x="0" y="660" type="line"/>
			<point x="400" y="660" type="line"/>
			<point x="400" y="200" type="line"/>
		</contour>
	</outline>
</glyph>
<glyph name="_89" format="2">
	<unicode hex="0159"/>
	<advance width="400"/>
	<outline>
		<component base="cap"/>
		<component base="cap" yOffset="490"/>
		<contour>
			<point x="0" y="200" type="line"/>
			<point x="0" y="690" type="line"/>
			<point x="400" y="690" type="line"/>
			<point x="400" y="200" type="line"/>
		</contour>
	</outline>
</glyph>
<glyph name="_92" format="2">
	<unicode hex="015C"/>
	<unicode hex="0055"/>
	<advance width="400"/>
	<outline>
		<component base="cap"/>
		<component base="cap" yOffset="520"/>
		<contour>
			<point x="0" y="200" type="line"/>
			<point x="0" y="720" type="line"/>
			<point x="400" y="720" type="line"/>
			<point x="400" y="200" type="line"/>
		</contour>
	</outline>
</glyph>
<glyph name="_108" format="2">
	<unicode hex="016C"/>
	<advance width="400"/>
	<outline>
		<component base="cap"/>
		<component base="cap" yOffset="680"/>
		<contour>
			<point x="0" y="200" type="line"/>
			<point x="0" y="880" type="line"/>
			<point x="400" y="880" type="line"/>
			<point x="400" y="200" type="line"/>
		</contour>
	</outline>
</glyph>
<glyph name="_110" format="2">
	<unicode hex="016E"/>
	<advance width="400"/>
	<outline>
		<component base="cap"/>
		<component base="cap" yOffset="700"/>
		<contour>
			<point x="0" y="200" type="line"/>
			<point x="0" y="900" type="line"/>
			<point x="400" y="900" type="line"/>
			<point x="400" y="200" type="line"/>
		</contour>
	</outline>
</glyph>
<glyph name="_111" format="2">
	<unicode hex="016F"/>
	<advance width="400"/>
	<outline>
		<component base="cap"/>
		<component base="cap" yOffset="710"/>
		<contour>
			<point x="0" y="200" type="line"/>
			<point x="0" y="910" type="line"/>
			<point x="400" y="910" type="line"/>
			<point x="400" y="200" type="line"/>
		</contour>
	</outline>
</glyph>
<glyph name="_113" format="2">
	<unicode hex="0171"/>
	<advance width="400"/>
	<outline>
		<component base="cap"/>
		<component base="cap" yOffset="730"/>
		<contour>
			<point x="0" y="200" type="line"/>
			<point x="0" y="930" type="line"/>
			<point x="400" y="930" type="line"/>
			<point x="400" y="200" type="line"/>
		</contour>
	</outline>
</glyph>
<glyph name="_114" format="2">
	<unicode hex="0172"/>
	<advance width="400"/>
	<outline>
		<component base="cap"/>
		<component base="cap" yOffset="740"/>
		<contour>
			<point x="0" y="200" type="line"/>
			<point x="0" y="940" type="line"/>
			<point x="400" y="940" type="line"/>
			<point x="400" y="200" type="line"/>
		</contour>
	</outline>
</glyph>
<glyph name="_115" format="2">
	<unicode hex="0173"/>
	<advance width="400"/>
	<outline>
		<component base="cap"/>
		<component base="cap" yOffset="750"/>
		<contour>
			<point x="0" y="200" type="line"/>
			<point x="0" y="950" type="line"/>
			<point x="400" y="950" type="line"/>
			<point x="400" y="200" type="line"/>
		</contour>
	</outline>
</glyph>
<glyph name="_117" format="2">
	<unicode hex="0175"/>
	<advance width="400"/>
	<outline>
		<component base="cap"/>
		<component base="cap" yOffset="770"/>
		<contour>
			<point x="0" y="200" type="line"/>
			<point x="0" y="970" type="line"/>
			<point x="400" y="970" type="line"/>
			<point x="400" y="200" type="line"/>
		</contour>
	</outline>
</glyph>
<glyph name="_118" format="2">
	<unicode hex="0176"/>
	<advance width="400"/>
	<outline>
		<component base="cap"/>
		<component base="cap" yOffset="780"/>
		<contour>
			<point x="0" y="200" type="line"/>
			<point x="0" y="980" type="line"/>
			<point x="400" y="980" type="line"/>
			<point x="400" y="200" type="line"/>
		</contour>
	</outline>
</glyph>
<glyph name="_119" format="2">
	<unicode hex="0177"/>
	<advance width="400"/>
	<outline>
		<component base="cap"/>
		<component base="cap" yOffset="790"/>
		<contour>
			<point x="0" y="200" type="line"/>
			<point x="0" y="990" type="line"/>
			<point x="400" y="990" type="line"/>
			<point x="400" y="200" type="line"/>
		</contour>
	</outline>
</glyph>
<glyph name="_120" format="2">
	<unicode hex="0178"/>
	<advance width="400"/>
	<outline>
		<component base="cap"/>
		<component base="cap" yOffset="800"/>
		<contour>
			<point x="0" y="200" type="line"/>
			<point x="0" y="1000" type="line"/>
			<point x="400" y="1000" type="line"/>
			<point x="400" y="200" type="line"/>
		</contour>
	</outline>
</glyph>
<glyph name="_121" format="2">
	<unicode hex="0179"/>
	<advance width="400"/>
	<outline>
		<component base="cap"/>
		<component base="cap" yOffset="810"/>
		<contour>
			<point x="0" y="200" type="line"/>
			<point x="0" y="1010" type="line"/>
			<point x="400" y="1010" type="line"/>
			<point x="400" y="200" type="line"/>
		</contour>
	</outline>
</glyph>
<glyph name="_124" format="2">
	<unicode hex="017C"/>
	<advance width="400"/>
	<outline>
		<component base="cap"/>
		<component base="cap" yOffset="840"/>
		<contour>
			<point x="0" y="200" type="line"/>
			<point x="0" y="1040" type="line"/>
			<point x="400" y="1040" type="line"/>
			<point x="400" y="200" type="line"/>
		</contour>
	</outline>
</glyph>
<glyph name="_125" format="2">
	<unicode hex="017D"/>
	<advance width="400"/>
	<outline>
		<component base="cap"/>
		<component base="cap" yOffset="850"/>
		<contour>
			<point x="0" y="200" type="line"/>
			<point x="0" y="1050" type="line"/>
			<point x="400" y="1050" type="line"/>
			<point x="400" y="200" type="line"/>
		</contour>
	</outline>
</glyph>
<glyph name="_126" format="2">
	<unicode hex="017E"/>
	<advance width="400"/>
	<outline>
		<component base="cap"/>
		<component base="cap" yOffset="860"/>
		<contour>
			<point x="0" y="200" type="line"/>
			<point x="0" y="1060" type="line"/>
			<point x="400" y="1060" type="line"/>
			<point x="400" y="200" type="line"/>
		</contour>
	</outline>
</glyph>
<glyph name="_127" format="2">
	<unicode hex="017F"/>
	<advance width="400"/>
	<outline>
		<component base="cap"/>
		<component base="cap" yOffset="870"/>
		<contour>
			<point x="0" y="200" type="line"/>
			<point x="0" y="1070" type="line"/>
			<point x="400" y="1070" type="line"/>
			<point x="400" y="200" type="line"/>
		</contour>
	</outline>
</glyph>
